<svg aria-hidden="true" style="width:0;height:0;position:absolute;overflow:hidden" xmlns="http://www.w3.org/2000/svg"><defs><symbol id="icon-down_arrow_mobile" viewBox="0 0 53 32"><path d="M29.19 20.979a3.558 3.558 0 0 1-5.048 0L7.858 4.659A3.558 3.558 0 1 0 2.81 9.673l16.32 16.32a10.67 10.67 0 0 0 15.076 0l16.32-16.32a3.555 3.555 0 0 0 .767-3.854 3.562 3.562 0 0 0-1.924-1.937 3.563 3.563 0 0 0-2.734 0c-.433.18-.827.445-1.157.778L29.194 20.98z"/></symbol><symbol id="icon-down_arrow_desktop_tablet" viewBox="0 0 56 32"><path fill="#fd9222" style="fill:var(--color1,#fd9222)" d="M30.605 21.134a3.675 3.675 0 0 1-2.603 1.085 3.67 3.67 0 0 1-2.603-1.085L8.606 4.304a3.675 3.675 0 0 0-2.603-1.085A3.67 3.67 0 0 0 3.4 9.474l16.83 16.83a11 11 0 0 0 15.546 0l16.83-16.83A3.672 3.672 0 0 0 51.414 3.5a3.651 3.651 0 0 0-2.82 0 3.659 3.659 0 0 0-1.193.803l-16.793 16.83z"/></symbol><symbol id="icon-hamburger_mobile" viewBox="0 0 32 32"><path stroke-linejoin="round" stroke-linecap="round" stroke-width="2.286" d="M4 16h24M4 8h24M4 24h24"/></symbol><symbol id="icon-hamburger_tablet" viewBox="0 0 45 32"><path stroke-linejoin="round" stroke-linecap="round" stroke-width="4" d="M3.2 16h38.4M3.2 3.2h38.4M3.2 28.8h38.4"/></symbol><symbol id="icon-instagram_desktop_tablet" viewBox="0 0 32 32"><path stroke-linejoin="round" stroke-linecap="round" stroke-width="2.667" d="M22.667 2.667H9.334a6.667 6.667 0 0 0-6.667 6.667v13.333a6.667 6.667 0 0 0 6.667 6.667h13.333a6.667 6.667 0 0 0 6.667-6.667V9.334a6.667 6.667 0 0 0-6.667-6.667z"/><path stroke-linejoin="round" stroke-linecap="round" stroke-width="2.667" d="M21.334 15.16a5.329 5.329 0 0 1-2.878 5.546 5.338 5.338 0 0 1-6.169-.992 5.33 5.33 0 0 1 1.316-8.505 5.336 5.336 0 0 1 6.228.962 5.328 5.328 0 0 1 1.504 2.989zM23.333 8.667h.013"/></symbol><symbol id="icon-instagram_mobile" viewBox="0 0 32 32"><path stroke-linejoin="round" stroke-linecap="round" stroke-width="2.182" d="M22.667 2.667H9.334a6.667 6.667 0 0 0-6.667 6.667v13.333a6.667 6.667 0 0 0 6.667 6.667h13.333a6.667 6.667 0 0 0 6.667-6.667V9.334a6.667 6.667 0 0 0-6.667-6.667z"/><path stroke-linejoin="round" stroke-linecap="round" stroke-width="2.182" d="M21.333 15.16a5.338 5.338 0 0 1-6.123 6.049 5.334 5.334 0 0 1-3.916-7.663 5.333 5.333 0 0 1 8.536-1.374 5.328 5.328 0 0 1 1.504 2.989zM23.333 8.667h.015"/></symbol><symbol id="icon-logo_desktop" viewBox="0 0 28 32"><path fill="none" stroke="#fd9222" style="stroke:var(--color1,#fd9222)" stroke-linejoin="round" stroke-linecap="round" stroke-width="2.667" d="M20.301 23.88 6.116 15.016m3.912-6.417 14.185 8.864M9.297 25.864l11.736-19.25m4.81 8.175c-3.04-1.899-4.234-3.384-2.278-6.592l-9.626-6.015-11.736 19.25 14.186 8.864 9.454-15.507z"/></symbol><symbol id="icon-logo_tablet_mobile" viewBox="0 0 27 32"><path fill="none" stroke="#fd9222" style="stroke:var(--color1,#fd9222)" stroke-linejoin="round" stroke-linecap="round" stroke-width="2.743" d="M20.111 23.88 5.925 15.016m3.912-6.417 14.185 8.864M9.106 25.864l11.736-19.25m4.811 8.175c-3.04-1.899-4.234-3.384-2.278-6.592l-9.626-6.015-11.736 19.25 14.185 8.864 9.454-15.507z"/></symbol><symbol id="icon-spoon" viewBox="0 0 32 32"><path fill="#fd9222" style="fill:var(--color1,#fd9222)" d="M15.373 13.835a5.895 5.895 0 0 1-1.345-3.751c0-4.941 5.921-9.877 11.842-9.877a5.923 5.923 0 0 1 5.921 5.922c0 5.922-4.934 11.845-9.881 11.845a5.887 5.887 0 0 1-3.75-1.345L3.579 31.213a1.977 1.977 0 0 1-2.794-2.795l14.587-14.584z"/></symbol><symbol id="icon-chocolate" viewBox="0 0 32 32"><path style="fill:var(--color2,#000)" d="m13.511.472 8.602 8.613.091-.091a.982.982 0 0 1 1.354-.015l.998.998c.349.349.36.88.095 1.25l-.005.008-.163.219 7.04 7.04a1.593 1.593 0 0 1 0 2.263L20.746 31.534a1.593 1.593 0 0 1-2.263 0l-5.082-5.082a.952.952 0 0 1-.7.362.964.964 0 0 1-.736-.282l-2.971-2.971a.98.98 0 0 1-.015-1.354l.007-.008.088-.087L.472 13.51a1.593 1.593 0 0 1 0-2.263L11.249.47a1.593 1.593 0 0 1 2.263 0v.001zm7.522 9.691-2.007-2.006a.676.676 0 0 0-.972 0l-4.091 4.091a.686.686 0 0 0-.204.491.694.694 0 0 0 .204.491l1.999 1.999.697-.697-1.789-1.789 3.669-3.68 1.793 1.799.701-.701zm-5.801 5.797-2.005-2.005a.676.676 0 0 0-.972 0l-4.103 4.103a.676.676 0 0 0 0 .971l2.002 2.002.704-.704-1.794-1.787 3.68-3.669 1.787 1.786.699-.698zM7.797 7.078l4.091 4.091a.667.667 0 0 0 .971-.011l4.091-4.091a.654.654 0 0 0 .206-.48h.011a.703.703 0 0 0-.206-.491L12.87 2.005a.688.688 0 0 0-.982 0L7.797 6.108a.676.676 0 0 0 0 .971zm-5.795 5.794 4.091 4.091a.676.676 0 0 0 .971 0l4.091-4.091a.665.665 0 0 0 .205-.491h.011a.683.683 0 0 0-.206-.491L7.074 7.799a.676.676 0 0 0-.972 0l-4.103 4.103a.676.676 0 0 0 0 .971zm7.924 10.005 2.699 2.701 11.013-14.903-.749-.749L9.926 22.877z"/><path fill="#fd9222" style="fill:var(--color1,#fd9222)" d="m13.511.472 8.602 8.613.091-.091a.982.982 0 0 1 1.354-.015l.998.998c.349.349.36.88.095 1.25l-.005.008-.163.219 7.04 7.04a1.593 1.593 0 0 1 0 2.263L20.746 31.534a1.593 1.593 0 0 1-2.263 0l-5.082-5.082a.952.952 0 0 1-.7.362.964.964 0 0 1-.736-.282l-2.971-2.971a.98.98 0 0 1-.015-1.354l.007-.008.088-.087L.472 13.51a1.593 1.593 0 0 1 0-2.263L11.249.47a1.593 1.593 0 0 1 2.263 0v.001zm7.522 9.691-2.007-2.006a.676.676 0 0 0-.972 0l-4.091 4.091a.686.686 0 0 0-.204.491.694.694 0 0 0 .204.491l1.999 1.999.697-.697-1.789-1.789 3.669-3.68 1.793 1.799.701-.701zm-5.801 5.797-2.005-2.005a.676.676 0 0 0-.972 0l-4.103 4.103a.676.676 0 0 0 0 .971l2.002 2.002.704-.704-1.794-1.787 3.68-3.669 1.787 1.786.699-.698zM7.797 7.078l4.091 4.091a.667.667 0 0 0 .971-.011l4.091-4.091a.654.654 0 0 0 .206-.48h.011a.703.703 0 0 0-.206-.491L12.87 2.005a.688.688 0 0 0-.982 0L7.797 6.108a.676.676 0 0 0 0 .971zm-5.795 5.794 4.091 4.091a.676.676 0 0 0 .971 0l4.091-4.091a.665.665 0 0 0 .205-.491h.011a.683.683 0 0 0-.206-.491L7.074 7.799a.676.676 0 0 0-.972 0l-4.103 4.103a.676.676 0 0 0 0 .971zm7.924 10.005 2.699 2.701 11.013-14.903-.749-.749L9.926 22.877z"/></symbol><symbol id="icon-close-button" viewBox="0 0 32 32"><path fill="none" stroke="#fff" style="stroke:var(--color1,#fff)" stroke-linejoin="round" stroke-linecap="round" stroke-width="2.286" d="M22.667 9.333 9.334 22.666M9.333 9.333l13.333 13.333"/></symbol><symbol id="icon-dollar_sign" viewBox="0 0 32 32"><path fill="#fd9222" style="fill:var(--color1,#fd9222)" d="M16 .762C7.619.762.762 7.619.762 16S7.619 31.238 16 31.238 31.238 24.381 31.238 16 24.381.762 16 .762zm0 27.429c-6.705 0-12.19-5.486-12.19-12.19S9.296 3.81 16 3.81c6.705 0 12.19 5.486 12.19 12.191s-5.486 12.19-12.191 12.19z"/><path fill="#fd9222" style="fill:var(--color1,#fd9222)" d="M17.981 14.476h-3.962c-.762 0-1.371-.61-1.371-1.371s.61-1.371 1.371-1.371h5.638c.914 0 1.524-.61 1.524-1.524s-.61-1.524-1.524-1.524h-2.133V7.315c0-.914-.61-1.524-1.524-1.524s-1.524.61-1.524 1.524v1.371h-.457c-2.438 0-4.419 1.981-4.419 4.419s1.981 4.419 4.419 4.419h3.809c.762 0 1.371.61 1.371 1.371s-.61 1.371-1.371 1.371H12.19c-.914 0-1.524.61-1.524 1.524s.61 1.524 1.524 1.524h2.286v1.371c0 .914.61 1.524 1.524 1.524s1.524-.61 1.524-1.524v-1.371h.457c2.438 0 4.419-1.981 4.419-4.419s-1.981-4.419-4.419-4.419z"/></symbol><symbol id="icon-twitter_mobile" viewBox="0 0 36 32"><path stroke-linejoin="round" stroke-linecap="round" stroke-width="2.667" d="M34.074 2.667a16.15 16.15 0 0 1-4.652 2.267 6.635 6.635 0 0 0-10.5.628 6.636 6.636 0 0 0-1.145 3.817v1.481c-2.604.068-5.183-.51-7.51-1.681S5.94 5.687 4.443 3.556c0 0-5.926 13.926 7.407 19.852a17.242 17.242 0 0 1-10.37 2.963c13.333 7.407 29.63 0 29.63-17.037a6.598 6.598 0 0 0-.119-1.23 11.433 11.433 0 0 0 3.081-5.437z"/></symbol><symbol id="icon-twitter_desktop_tablet" viewBox="0 0 32 32"><path stroke-linejoin="round" stroke-linecap="round" stroke-width="2.667" d="M30.667 4a14.542 14.542 0 0 1-4.187 2.04 5.975 5.975 0 0 0-6.637-1.661A5.981 5.981 0 0 0 16 10.04v1.333c-2.343.061-4.665-.459-6.759-1.513S4.68 6.297 3.333 4.379c0 0-4.667 12.954 7.333 18.287a15.519 15.519 0 0 1-9.333 2.667C13.333 32 28 25.333 28 10a5.966 5.966 0 0 0-.107-1.107A10.288 10.288 0 0 0 30.666 4z"/></symbol><symbol id="icon-x-close" viewBox="0 0 32 32"><path stroke-linejoin="round" stroke-linecap="round" stroke-width="2.286" d="M24 8 8 24M8 8l16 16"/></symbol><symbol id="icon-frame" viewBox="0 0 40 32"><path fill="gold" style="fill:var(--color4,gold)" d="M40.209.495H.307V30.19h39.902V.495z"/><path fill="#0057b7" style="fill:var(--color5,#0057b7)" d="M.307.495h39.902v14.847H.307V.495z"/></symbol><symbol id="icon-mastercard" viewBox="0 0 50 32"><path fill="#ed0006" style="fill:var(--color1,#ed0006)" d="M25.143 28.078c-2.656 2.194-6.102 3.518-9.867 3.518C6.875 31.596.065 25.003.065 16.87S6.875 2.144 15.276 2.144c3.765 0 7.21 1.324 9.867 3.518 2.656-2.194 6.102-3.518 9.866-3.518 8.401 0 15.211 6.593 15.211 14.726s-6.81 14.726-15.211 14.726c-3.765 0-7.21-1.324-9.867-3.518z"/><path fill="#f9a000" style="fill:var(--color2,#f9a000)" d="M25.143 28.078c3.271-2.701 5.344-6.72 5.344-11.208s-2.074-8.507-5.344-11.208c2.656-2.194 6.102-3.518 9.866-3.518 8.401 0 15.211 6.593 15.211 14.726s-6.81 14.726-15.211 14.726c-3.765 0-7.21-1.324-9.867-3.518z"/><path fill="#ff5e00" style="fill:var(--color3,#ff5e00)" d="M25.143 28.078c3.271-2.701 5.344-6.72 5.344-11.208s-2.074-8.507-5.344-11.208c-3.271 2.701-5.344 6.72-5.344 11.208s2.074 8.507 5.344 11.208z"/></symbol><symbol id="icon-close" viewBox="0 0 32 32"><path d="m26.667 7.303-1.97-1.97-7.808 7.808-7.808-7.808-1.97 1.97 7.808 7.808-7.808 7.808 1.97 1.97 7.808-7.808 7.808 7.808 1.97-1.97-7.808-7.808 7.808-7.808z"/></symbol></defs></svg>